<?xml version="1.0" standalone="no"?>
<!DOCTYPE svg PUBLIC "-//W3C//DTD SVG 20010904//EN"
 "http://www.w3.org/TR/2001/REC-SVG-20010904/DTD/svg10.dtd">
<svg version="1.0" xmlns="http://www.w3.org/2000/svg"
 width="700.000000pt" height="700.000000pt" viewBox="0 0 700.000000 700.000000"
 preserveAspectRatio="xMidYMid meet">
<metadata>
Created by potrace 1.11, written by Peter Selinger 2001-2013
</metadata>
<g transform="translate(0.000000,700.000000) scale(0.100000,-0.100000)"
fill="#000000" stroke="none">
<path d="M3477 6924 c-20 -30 -210 -357 -337 -579 -9 -16 -68 -118 -130 -225
-62 -107 -121 -211 -132 -230 -11 -19 -53 -91 -93 -160 -188 -324 -255 -443
-255 -458 0 -8 13 -36 29 -61 16 -25 129 -219 251 -431 122 -212 233 -402 246
-422 13 -21 24 -39 24 -42 0 -2 51 -91 113 -198 63 -108 117 -202 120 -209 4
-8 16 -27 26 -44 59 -95 151 -259 151 -268 0 -23 35 33 173 273 11 19 28 49
38 65 10 17 24 41 32 55 20 37 131 229 452 780 158 272 287 500 288 505 0 6
-34 69 -75 140 -42 72 -141 243 -220 380 -141 243 -323 559 -358 620 -61 105
-286 495 -300 519 l-18 29 -25 -39z"/>
<path d="M2412 5148 c-17 -29 -142 -246 -192 -332 -9 -17 -96 -166 -192 -331
-96 -165 -183 -313 -192 -330 -34 -62 -66 -116 -210 -364 -81 -139 -152 -263
-158 -276 -9 -19 6 -49 103 -216 62 -107 145 -250 184 -319 39 -69 130 -226
202 -350 72 -124 141 -243 153 -265 12 -22 26 -44 30 -50 4 -5 20 -32 35 -60
59 -107 258 -446 260 -443 2 2 12 19 23 38 10 19 61 107 112 195 79 136 225
388 291 503 11 17 29 49 40 70 12 20 54 93 94 162 162 277 393 676 403 697 12
21 -22 86 -226 433 -12 19 -43 73 -70 120 -27 47 -89 155 -139 240 -49 85
-183 317 -298 515 -114 198 -214 368 -220 378 -12 17 -14 16 -33 -15z"/>
<path d="M4389 4879 c-96 -165 -184 -319 -197 -342 -13 -22 -65 -110 -115
-196 -50 -86 -101 -174 -113 -196 -12 -22 -101 -177 -198 -344 l-177 -303 163
-282 c90 -154 168 -288 173 -298 6 -9 17 -29 26 -45 23 -42 611 -1058 614
-1061 2 -2 212 354 293 497 14 25 38 68 55 95 25 42 172 297 237 411 10 17
100 171 200 344 100 173 185 322 187 331 3 10 -99 195 -248 451 -139 239 -355
612 -481 829 -126 217 -233 398 -237 403 -4 4 -86 -128 -182 -294z"/>
<path d="M3492 3388 c-5 -7 -19 -29 -30 -48 -25 -43 -160 -276 -301 -517 -58
-101 -115 -200 -127 -220 -53 -94 -289 -502 -310 -535 -13 -21 -24 -39 -24
-41 0 -2 -40 -72 -89 -156 l-89 -151 181 -313 c99 -171 187 -324 196 -339 75
-128 187 -325 189 -335 2 -7 8 -13 13 -13 5 0 9 -4 9 -9 0 -11 376 -661 391
-676 6 -5 9 -5 9 3 0 6 14 35 31 64 18 29 80 136 139 238 59 102 133 230 165
285 102 177 426 737 483 835 30 52 76 132 102 176 l48 82 -60 103 c-33 57 -70
122 -83 144 -22 38 -115 199 -420 725 -79 135 -152 261 -162 280 -11 19 -53
91 -93 160 -71 122 -88 151 -131 228 -27 47 -24 45 -37 30z"/>
</g>
</svg>
